<?xml version="1.0" standalone="no"?>
<!DOCTYPE svg PUBLIC "-//W3C//DTD SVG 20010904//EN"
 "http://www.w3.org/TR/2001/REC-SVG-20010904/DTD/svg10.dtd">
<svg version="1.0" xmlns="http://www.w3.org/2000/svg"
 width="1800.000000pt" height="1800.000000pt" viewBox="0 0 1800.000000 1800.000000"
 preserveAspectRatio="xMidYMid meet">
<metadata>
Created by potrace 1.11, written by Peter Selinger 2001-2013
</metadata>
<g transform="translate(0.000000,1800.000000) scale(0.100000,-0.100000)"
fill="#000000" stroke="none">
<path d="M16778 11604 c-3 -2 -27 -7 -54 -10 -149 -17 -326 -78 -457 -157
-134 -80 -264 -254 -293 -388 -19 -90 -22 -122 -19 -203 8 -229 73 -366 240
-501 66 -54 234 -136 309 -151 10 -2 33 -8 51 -14 32 -11 59 -17 105 -26 14
-2 36 -7 48 -10 13 -2 43 -7 65 -10 23 -3 53 -8 67 -10 30 -6 67 -11 135 -18
28 -3 61 -8 75 -11 14 -2 39 -7 57 -10 18 -3 43 -9 57 -15 15 -5 26 -8 26 -5
0 9 117 -37 168 -66 119 -67 173 -156 167 -271 -7 -105 -28 -154 -96 -220 -85
-83 -190 -124 -374 -144 -27 -3 -53 -8 -57 -10 -4 -2 -9 0 -12 5 -4 6 -18 6
-35 1 -16 -4 -31 -6 -34 -4 -2 2 -38 6 -80 9 -175 12 -366 95 -480 209 -36 36
-90 114 -106 154 l-13 31 -92 -46 c-50 -26 -92 -50 -94 -55 -2 -4 -9 -8 -15
-8 -14 0 -184 -88 -191 -98 -6 -10 56 -132 103 -200 135 -198 369 -342 630
-387 19 -3 37 -8 41 -10 14 -8 169 -18 310 -19 134 -1 233 5 291 18 13 3 38 7
54 10 132 20 329 102 434 180 37 28 117 102 144 136 51 61 119 216 135 305 9
52 9 247 0 305 -32 202 -154 372 -338 473 -86 46 -262 111 -335 123 -22 3 -43
8 -46 10 -4 2 -24 6 -45 9 -22 4 -46 8 -54 10 -8 2 -37 7 -65 10 -27 3 -61 8
-75 10 -14 3 -47 7 -75 11 -27 3 -61 7 -75 10 -14 2 -43 7 -65 10 -132 20
-286 85 -335 141 -63 71 -76 187 -31 273 25 49 111 136 145 146 11 3 39 14 61
24 130 58 391 58 560 -2 123 -43 240 -120 299 -195 l29 -38 101 52 c56 28 139
71 186 94 47 24 86 44 88 45 4 2 -25 56 -61 112 -42 65 -148 167 -225 215
-135 87 -220 117 -462 163 -39 7 -386 15 -392 8z"/>
<path d="M6428 11574 c-2 -1 -41 -4 -88 -8 -390 -26 -749 -222 -945 -516 -27
-41 -53 -77 -56 -80 -5 -5 -29 -53 -82 -170 -30 -65 -83 -260 -94 -345 -10
-77 -10 -344 1 -414 9 -60 29 -153 46 -216 6 -22 14 -50 17 -63 3 -12 9 -25
14 -28 5 -3 9 -11 9 -19 0 -27 104 -232 130 -255 3 -3 17 -23 33 -46 36 -53
157 -173 232 -229 150 -113 379 -199 620 -233 69 -10 389 -9 450 1 28 5 59 10
70 12 31 4 166 44 210 62 125 49 290 145 365 212 25 22 48 41 52 41 4 0 12 9
18 20 10 19 -5 38 -146 180 -166 168 -162 166 -209 123 -94 -85 -295 -182
-412 -198 -21 -2 -49 -7 -63 -10 -27 -6 -198 -7 -240 -1 -262 36 -439 131
-578 311 -57 73 -127 248 -149 369 -11 66 -11 293 2 351 56 269 177 452 380
574 60 37 194 88 254 97 20 3 40 8 45 11 15 10 264 11 313 2 26 -5 59 -11 73
-14 38 -7 130 -40 175 -62 85 -43 102 -54 162 -102 l61 -50 104 101 c56 55
121 117 143 137 70 65 71 66 38 98 -25 24 -94 84 -128 111 -5 4 -38 25 -73 46
-178 108 -359 171 -552 192 -52 6 -199 12 -202 8z"/>
<path d="M14143 11568 c-45 -3 -97 -9 -115 -12 -229 -38 -426 -124 -588 -256
-46 -38 -147 -140 -178 -180 -62 -81 -166 -258 -179 -305 -1 -5 -15 -46 -32
-91 -16 -44 -31 -94 -34 -110 -3 -16 -10 -49 -16 -74 -32 -142 -35 -429 -5
-571 2 -13 9 -44 14 -69 31 -158 142 -393 244 -519 46 -57 177 -178 232 -215
33 -21 70 -46 84 -56 14 -9 68 -35 120 -57 82 -35 117 -47 165 -58 6 -2 28 -7
50 -13 106 -29 179 -36 360 -36 146 0 224 5 281 18 12 2 37 7 56 10 20 3 46
10 59 15 13 5 29 9 34 10 15 2 78 23 90 30 6 3 15 6 21 7 23 4 161 77 228 122
131 87 271 244 359 403 67 119 137 333 152 459 1 14 6 52 10 85 23 179 2 389
-60 605 -8 29 -35 101 -44 118 -5 9 -24 46 -41 82 -137 276 -384 492 -675 588
-125 41 -171 51 -307 68 -67 8 -201 9 -285 2z m304 -441 c6 -4 28 -9 49 -13
101 -15 273 -114 360 -206 118 -124 187 -273 231 -498 8 -41 7 -242 -1 -290
-4 -25 -9 -57 -11 -72 -8 -54 -26 -115 -56 -193 -7 -16 -13 -36 -15 -43 -1 -8
-10 -22 -18 -31 -9 -10 -16 -21 -16 -26 0 -16 -90 -132 -138 -177 -57 -53
-153 -118 -176 -118 -8 0 -17 -4 -21 -9 -6 -11 -88 -39 -132 -47 -15 -2 -35
-7 -42 -10 -66 -23 -340 -19 -406 6 -14 5 -25 8 -25 5 0 -5 -95 28 -145 51
-108 50 -220 148 -292 255 -67 99 -124 257 -142 399 -13 98 -4 351 14 380 2 4
7 22 10 41 17 94 115 280 194 366 52 56 141 123 212 158 38 20 69 32 69 29 0
-4 6 -2 13 3 6 6 24 13 39 17 16 3 30 7 33 8 70 23 380 35 412 15z"/>
<path d="M6 11523 c-3 -3 -6 -574 -6 -1268 l0 -1262 238 1 237 1 1 500 c1 275
2 505 3 510 1 7 214 10 619 10 l617 0 0 -510 0 -510 235 0 235 0 0 1265 c0
1030 -2 1265 -13 1262 -7 -1 -23 -2 -35 -2 -12 0 -42 0 -67 -1 -25 -1 -52 -1
-60 0 -33 1 -188 0 -240 -2 l-55 -2 0 -527 c0 -291 -2 -529 -5 -529 -12 -3
-1216 -5 -1225 -2 -7 2 -10 186 -10 529 0 289 -3 528 -7 531 -9 5 -60 5 -120
0 -21 -1 -38 0 -38 3 0 3 -33 4 -72 3 -148 -5 -207 -5 -216 1 -5 3 -12 3 -16
-1z"/>
<path d="M3494 11495 c-7 -16 -49 -110 -93 -208 -45 -98 -81 -180 -81 -182 0
-2 -16 -38 -36 -82 -40 -87 -60 -131 -97 -213 -54 -121 -70 -156 -85 -190 -9
-19 -17 -37 -17 -40 -1 -3 -14 -32 -29 -65 -15 -33 -36 -78 -46 -100 -10 -22
-34 -75 -54 -118 -20 -44 -36 -80 -36 -82 0 -2 -27 -64 -61 -137 -57 -125 -80
-176 -84 -188 -1 -3 -16 -35 -33 -73 -18 -37 -32 -69 -32 -71 0 -2 -18 -44
-41 -93 -22 -48 -46 -101 -54 -118 -7 -16 -43 -97 -80 -180 -37 -82 -75 -168
-85 -190 -44 -97 -70 -158 -70 -164 0 -3 109 -5 242 -4 294 2 278 1 278 12 0
5 13 38 29 73 60 132 84 184 101 225 10 22 32 70 49 105 l31 63 660 0 c363 0
660 -3 660 -7 0 -7 34 -83 101 -225 16 -35 29 -65 29 -68 0 -14 80 -175 87
-176 4 0 119 -1 256 -2 175 -2 247 1 247 9 0 10 -27 73 -82 194 -11 25 -38 86
-60 135 -22 50 -50 113 -63 140 -12 28 -62 138 -110 245 -48 107 -95 214 -106
237 -10 24 -19 47 -19 53 0 5 -4 10 -10 10 -5 0 -10 6 -10 14 0 8 -18 52 -40
99 -22 47 -84 186 -139 309 -54 123 -115 257 -134 299 -19 42 -50 110 -67 150
-30 70 -51 115 -105 234 -29 63 -58 129 -60 135 0 3 -11 28 -24 55 -13 28 -36
79 -52 115 -16 36 -33 72 -38 80 -7 12 -49 15 -266 15 l-258 0 -13 -30z m348
-672 c11 -26 22 -52 24 -58 2 -9 180 -416 218 -500 8 -16 26 -58 40 -92 24
-57 54 -126 92 -210 8 -17 14 -35 14 -40 0 -10 -902 -9 -918 1 -8 5 -8 13 -2
24 5 9 18 37 29 62 10 25 28 65 39 90 11 25 34 79 52 120 18 41 45 103 61 138
16 35 29 65 29 67 0 3 11 28 24 57 13 29 38 87 56 128 55 129 62 144 85 195
12 28 35 81 51 119 l28 69 28 -61 c16 -34 38 -83 50 -109z"/>
<path d="M7717 11520 c-9 -4 -12 -285 -12 -1257 0 -688 4 -1255 8 -1259 11
-12 1876 -11 1880 1 2 6 3 111 2 235 l0 225 -708 0 c-464 0 -707 3 -708 10 -1
13 -1 465 0 521 l1 40 682 0 683 0 1 214 c0 118 -3 220 -7 225 -4 6 -25 9 -46
7 -51 -4 -104 -2 -115 4 -4 3 -8 1 -8 -5 0 -6 -7 -8 -15 -5 -23 9 -105 10
-105 1 0 -5 -5 -5 -11 -2 -12 8 -237 10 -244 3 -3 -2 -27 -2 -55 2 -27 4 -50
2 -50 -2 0 -5 -4 -6 -10 -3 -13 8 -108 11 -116 3 -3 -4 -12 -4 -20 -1 -20 7
-234 9 -234 2 0 -3 -22 -3 -50 1 -27 4 -50 3 -50 -1 0 -5 -10 -5 -21 0 -12 4
-41 4 -65 1 -24 -4 -44 -4 -44 -1 0 3 -22 5 -50 4 -34 -2 -50 2 -51 10 -3 63
0 560 4 563 3 3 322 6 708 7 l704 2 0 223 c0 140 -4 226 -10 230 -12 7 -1850
9 -1868 2z"/>
<path d="M10078 11525 c-3 -4 -30 -6 -60 -6 l-53 0 0 -1262 0 -1262 240 0 240
-1 -1 914 c-1 530 2 910 7 905 5 -5 51 -67 103 -138 52 -72 99 -134 103 -140
5 -5 38 -50 73 -100 36 -49 73 -99 83 -109 9 -11 17 -23 17 -27 0 -4 6 -14 13
-21 7 -7 33 -42 59 -78 26 -36 55 -74 64 -85 8 -11 23 -32 32 -47 9 -16 20
-28 24 -28 4 0 8 -6 8 -14 0 -8 4 -16 8 -18 7 -3 50 -60 175 -235 29 -40 34
-43 79 -43 l48 0 72 98 c40 53 78 103 85 110 7 7 13 17 13 20 0 4 10 18 23 32
12 14 38 48 57 75 19 28 38 52 41 55 3 3 59 77 124 165 65 88 124 165 132 171
7 6 13 14 13 18 0 4 5 12 10 19 6 7 36 46 67 87 31 41 59 77 63 80 4 3 9 10
11 15 10 25 104 142 109 135 8 -12 4 -225 -4 -239 -4 -6 -3 -11 1 -11 5 0 7
-26 5 -57 -1 -32 -3 -62 -3 -68 0 -5 2 -54 3 -108 2 -55 -1 -101 -5 -104 -4
-3 -4 -10 0 -16 5 -7 7 -34 6 -62 -3 -62 -3 -73 0 -160 1 -38 -1 -75 -6 -82
-4 -6 -4 -13 0 -16 5 -3 7 -32 5 -64 -1 -32 -3 -65 -3 -73 2 -61 0 -114 -4
-121 -3 -4 -2 -10 3 -13 8 -5 6 -91 -3 -113 -2 -7 -1 -13 3 -13 6 0 7 -67 2
-95 -2 -6 -1 -14 0 -20 4 -21 1 -106 -5 -115 -3 -6 -3 -10 2 -10 7 0 9 -65 3
-95 -2 -6 -2 -12 0 -15 1 -3 2 -36 3 -75 l2 -70 235 0 235 0 1 1262 0 1261
-39 4 c-21 2 -40 1 -43 -3 -2 -4 -20 -3 -39 1 -20 4 -38 4 -41 -1 -3 -5 -10
-7 -15 -3 -13 7 -148 8 -155 1 -3 -3 -19 -1 -35 3 -16 5 -31 5 -34 0 -3 -4
-21 -4 -40 0 -19 4 -35 4 -35 0 0 -4 -15 -5 -32 -1 -31 6 -35 4 -87 -69 -30
-41 -64 -89 -75 -105 -12 -17 -27 -37 -34 -45 -10 -13 -236 -324 -282 -390 -8
-12 -23 -31 -32 -43 -9 -12 -83 -114 -165 -226 l-147 -203 -21 25 c-49 60 -55
68 -55 76 0 5 -4 11 -8 13 -4 2 -23 25 -42 53 -19 27 -43 58 -52 69 -10 11
-20 27 -23 37 -3 9 -12 20 -20 23 -8 3 -15 12 -15 20 0 8 -4 16 -8 18 -4 2
-37 44 -72 93 -36 50 -68 95 -73 100 -7 9 -59 80 -101 140 -16 22 -188 257
-211 290 -9 11 -31 42 -50 69 -20 28 -43 51 -53 53 -16 3 -106 4 -177 2 -16
-1 -45 1 -63 4 -18 2 -35 1 -37 -3 -3 -5 -17 -5 -33 -1 -15 4 -44 4 -64 1 -21
-4 -39 -3 -40 2 -2 5 -6 6 -10 3z"/>
<path d="M4906 8363 c-1 -1 -33 -5 -72 -8 -242 -21 -477 -153 -558 -314 -49
-97 -67 -252 -41 -358 3 -13 7 -32 9 -43 17 -76 98 -182 184 -242 68 -47 235
-109 332 -124 19 -3 58 -9 85 -14 28 -5 70 -11 95 -14 25 -3 57 -8 71 -11 14
-2 39 -6 55 -8 93 -11 222 -72 261 -125 59 -79 48 -196 -25 -266 -36 -35 -112
-82 -112 -70 0 4 -6 2 -13 -4 -24 -21 -149 -35 -261 -29 -144 6 -239 37 -326
106 -40 31 -53 44 -89 87 -5 6 -19 30 -30 52 -16 32 -25 40 -39 35 -37 -14
-268 -136 -281 -148 -11 -11 -9 -21 11 -62 14 -27 38 -68 53 -93 30 -48 137
-160 153 -160 5 0 15 -7 22 -15 20 -24 155 -84 238 -106 106 -28 155 -33 322
-33 159 0 254 11 317 35 15 6 30 11 33 11 3 0 16 4 30 9 132 48 226 112 305
209 25 30 72 129 81 167 34 154 23 292 -31 408 -28 61 -88 135 -147 180 -69
54 -244 123 -358 140 -14 2 -34 6 -45 8 -11 3 -45 8 -75 12 -30 4 -63 9 -74
11 -10 2 -38 6 -62 8 -119 14 -237 55 -285 98 -51 46 -62 125 -28 196 70 144
390 193 594 90 62 -31 175 -127 175 -149 0 -6 283 133 298 147 2 1 -8 25 -23
53 -30 54 -110 144 -165 183 -37 27 -140 85 -153 87 -4 0 -37 9 -75 20 -65 20
-99 26 -191 37 -49 6 -161 11 -165 7z"/>
<path d="M6714 8331 c-3 -3 -12 -6 -22 -7 -208 -29 -373 -108 -514 -248 -61
-59 -158 -192 -158 -215 0 -6 -4 -11 -10 -11 -5 0 -10 -5 -10 -11 0 -6 -6 -25
-14 -42 -17 -39 -41 -100 -41 -107 -1 -3 -4 -14 -8 -25 -35 -106 -51 -330 -33
-470 38 -292 219 -563 461 -688 45 -24 98 -47 118 -52 4 -2 8 -3 10 -5 2 -2 3
-2 92 -24 118 -29 296 -38 424 -21 90 11 220 51 301 91 110 54 250 176 317
274 150 221 208 515 158 808 -16 95 -71 231 -133 332 -68 110 -118 165 -217
240 -62 47 -160 104 -168 98 -2 -2 -10 2 -18 8 -21 17 -167 62 -229 71 -39 5
-301 9 -306 4z m231 -346 c44 -6 147 -35 155 -44 3 -3 21 -13 40 -22 68 -31
141 -100 191 -178 27 -42 49 -83 49 -91 0 -9 4 -20 9 -25 19 -22 42 -141 45
-228 6 -202 -52 -374 -168 -499 -19 -21 -40 -38 -45 -38 -6 0 -11 -4 -11 -8 0
-21 -149 -87 -225 -100 -35 -6 -203 -7 -260 -2 -83 7 -220 77 -287 147 -45 46
-108 134 -108 152 0 4 -7 21 -15 37 -33 67 -48 158 -49 289 0 114 3 139 26
205 74 218 209 347 413 393 106 25 133 26 240 12z"/>
<path d="M8848 8335 c-2 -2 -28 -6 -58 -9 -255 -30 -504 -183 -642 -393 -136
-207 -187 -422 -164 -688 24 -281 168 -540 379 -684 49 -33 203 -109 235 -116
9 -2 37 -8 62 -14 77 -19 83 -21 145 -27 67 -8 251 -8 305 0 87 12 113 17 128
25 9 5 19 9 22 8 10 -1 87 26 140 50 74 33 186 108 236 158 l41 40 -126 127
-127 127 -26 -22 c-15 -12 -35 -29 -46 -38 -52 -43 -185 -103 -262 -117 -46
-9 -256 -7 -300 2 -102 22 -227 92 -289 161 -51 57 -99 142 -122 215 -78 251
-17 519 154 681 21 20 50 42 65 50 15 8 29 17 32 20 8 10 95 46 157 65 90 27
258 24 353 -6 68 -21 177 -73 190 -89 3 -3 21 -18 41 -33 l36 -27 123 120 123
119 -19 21 c-38 42 -142 119 -215 158 -108 58 -206 90 -324 107 -40 6 -243 13
-247 9z"/>
<path d="M427 8304 c-3 -3 -100 -5 -216 -4 l-211 1 0 -173 0 -173 290 1 290 0
0 -758 0 -758 23 -1 c126 -6 347 -2 350 6 1 6 2 346 2 758 -1 411 1 748 4 748
4 1 132 3 286 4 154 2 282 3 285 4 3 1 5 76 5 169 l0 167 -300 3 c-357 4 -282
4 -558 2 -125 0 -231 1 -236 4 -4 3 -11 3 -14 0z"/>
<path d="M1774 8289 c-8 -13 -2 -1143 6 -1194 23 -139 36 -180 92 -293 66
-133 196 -260 330 -321 26 -11 49 -21 52 -21 2 0 17 -5 33 -12 35 -14 51 -19
83 -23 14 -3 43 -8 65 -13 22 -5 64 -10 94 -11 30 -1 58 -4 63 -7 4 -3 8 0 8
6 0 7 6 8 19 1 10 -6 20 -9 22 -7 2 2 35 6 72 10 108 10 302 73 343 111 6 5
29 21 50 34 59 38 154 150 202 240 23 45 43 84 43 88 1 5 3 13 5 18 46 141 49
188 49 825 l0 575 -185 0 -184 0 -1 -575 c-1 -316 -5 -595 -9 -619 -18 -110
-81 -222 -153 -277 -73 -55 -144 -77 -258 -78 -119 -1 -156 5 -228 40 -107 50
-175 129 -218 254 -22 64 -22 73 -25 655 -1 325 -3 592 -3 595 -1 9 -362 7
-367 -1z"/>
<path d="M9956 7372 c0 -510 2 -929 3 -932 0 -3 81 -5 178 -5 131 0 179 3 183
12 3 7 5 425 5 930 l0 918 -186 2 -185 2 2 -927z"/>
<path d="M10729 8282 c-4 -72 -3 -1825 1 -1835 4 -9 164 -12 698 -12 380 0
693 2 693 5 1 3 3 85 4 182 1 118 -2 178 -9 181 -6 2 -237 3 -514 3 -276 -1
-502 1 -503 4 0 3 -1 88 -1 190 l-1 185 496 3 497 2 0 175 c0 160 -2 175 -17
176 -10 0 -234 0 -498 0 l-480 1 1 187 c1 104 4 192 7 197 3 5 213 9 504 9
274 -1 503 0 508 2 7 2 11 66 10 181 l0 177 -697 2 c-654 2 -698 1 -699 -15z"/>
<path d="M12452 7368 l0 -933 407 1 c477 2 517 4 641 44 254 81 436 248 543
500 16 36 26 68 28 85 0 6 5 16 11 23 6 6 8 12 5 12 -3 0 -1 15 4 33 22 69 31
305 15 387 -4 19 -9 46 -11 60 -6 52 -49 177 -82 245 -116 235 -296 376 -568
447 -74 19 -114 21 -536 25 l-457 4 0 -933z m843 568 c159 -26 278 -102 357
-226 28 -43 67 -135 73 -170 1 -3 5 -23 9 -45 12 -55 14 -202 3 -250 -5 -22
-10 -49 -13 -60 -6 -33 -84 -185 -94 -185 -6 0 -10 -5 -10 -11 0 -6 -21 -31
-47 -55 -54 -49 -163 -106 -238 -123 -65 -15 -154 -20 -161 -9 -3 5 -11 5 -17
1 -10 -6 -200 -9 -313 -4 l-21 1 0 568 c0 312 4 569 8 572 11 8 415 4 464 -4z"/>
<path d="M14935 8258 c-10 -24 -33 -74 -50 -113 -18 -38 -76 -169 -130 -290
-54 -121 -115 -257 -136 -303 -22 -46 -39 -85 -39 -87 0 -2 -16 -38 -36 -82
-39 -86 -36 -79 -157 -348 -47 -104 -99 -220 -116 -257 -17 -36 -31 -68 -31
-71 0 -3 -17 -43 -39 -89 -72 -156 -81 -178 -68 -179 15 -1 380 -1 388 0 4 1
14 18 22 39 8 20 31 71 50 112 19 41 46 101 61 133 14 31 29 57 33 58 27 3
911 4 926 1 9 -3 17 -8 17 -13 0 -5 14 -39 31 -76 18 -38 50 -111 73 -163 l41
-95 197 1 c109 0 200 3 203 5 3 3 -31 86 -76 185 -44 98 -88 195 -96 214 -9
19 -17 37 -18 40 -5 13 -26 62 -58 130 -19 41 -71 158 -117 260 -45 102 -93
210 -107 240 -14 30 -32 71 -40 90 -8 19 -26 58 -38 85 -13 28 -51 113 -85
190 -34 77 -73 164 -86 193 -64 141 -77 169 -91 200 l-15 32 -197 0 -197 0
-19 -42z m260 -493 c21 -49 48 -112 60 -140 13 -27 46 -104 75 -170 28 -66 58
-133 65 -150 48 -106 73 -165 72 -166 -1 -1 -143 -3 -314 -4 -216 -1 -313 2
-313 9 0 6 11 35 25 64 14 30 25 59 25 65 0 6 7 18 16 28 8 9 16 26 17 38 1
11 5 21 9 21 4 0 8 7 8 15 0 8 4 23 10 33 14 25 63 135 66 147 1 6 15 39 32
75 16 36 37 81 45 100 39 90 59 132 62 128 2 -1 20 -43 40 -93z"/>
<path d="M16338 8293 c-4 -7 -3 -1838 1 -1853 2 -8 807 -4 880 4 36 4 67 9 71
11 4 2 22 7 40 10 44 8 191 64 211 81 8 8 19 14 23 14 7 0 84 51 120 80 77 62
176 190 216 280 6 14 18 38 25 55 8 16 26 71 41 120 34 115 43 335 18 455 -8
41 -17 86 -20 100 -16 79 -103 256 -161 328 -55 67 -134 141 -183 169 -25 14
-47 29 -50 33 -3 3 -36 20 -75 37 -61 27 -109 41 -230 69 -44 10 -922 17 -927
7z m836 -357 c210 -30 356 -154 422 -360 37 -112 42 -282 12 -382 -47 -160
-138 -274 -268 -337 -41 -20 -86 -39 -100 -41 -14 -3 -25 -5 -25 -6 0 -11
-481 -18 -498 -8 -12 7 -18 1116 -5 1133 8 12 381 12 462 1z"/>
</g>
</svg>
