<svg xmlns="http://www.w3.org/2000/svg" width="121.415" height="125.497" viewBox="0 0 121.415 125.497"><defs><style>.a{fill:#8666ee;}</style></defs><path class="a" d="M123.462,65.433,105.3,27.527a3.867,3.867,0,0,0-3.2-2.3l-24.55.135a15.154,15.154,0,0,0-6.9-8.664V11.687A7.791,7.791,0,0,0,63.109,3.7a7.706,7.706,0,0,0-7.544,7.987V16.7a15.466,15.466,0,0,0-6.777,8.664l-24.55-.135a4.047,4.047,0,0,0-3.2,2.3L3.011,65.433a5.939,5.939,0,0,0-.384,3.655C5.7,80.866,14.264,88.448,24.493,88.448s18.8-7.581,21.865-19.359a6.043,6.043,0,0,0-.384-3.655L31.909,35.92l16.878.135a15.719,15.719,0,0,0,6.777,8.529V95.352c0,9.477-6.777,17.464-15.728,18.412l-13.682,1.625a3.176,3.176,0,0,0-2.685,3.249v7.31a3.207,3.207,0,0,0,3.069,3.249H100.19a3.207,3.207,0,0,0,3.069-3.249v-7.31a3.279,3.279,0,0,0-2.685-3.249l-14.193-1.625c-8.951-1.083-15.728-8.935-15.728-18.412V44.585a15.719,15.719,0,0,0,6.777-8.529l16.878-.135L80.243,65.433a5.939,5.939,0,0,0-.384,3.655C82.928,80.866,91.5,88.448,101.725,88.448s18.8-7.581,21.865-19.359A4.553,4.553,0,0,0,123.462,65.433ZM36.257,60.289h-23.4l11.764-24.5Zm53.96,0,11.764-24.5,11.764,24.5Z" transform="translate(-2.5 -3.7)"/></svg>