<svg xmlns="http://www.w3.org/2000/svg" width="225.247" height="65.258" viewBox="0 0 225.247 65.258"><defs><style>.a{fill:#222551;}</style></defs><g transform="translate(-94.849 -194.849)"><path class="a" d="M100.8,214.788h15.518v12.767h5.909V195.977h-5.909v13.307H100.8V195.977H94.849v31.578H100.8Z"/><path class="a" d="M133.729,221.555h16.512l2.661,5.954h6.5l-14.166-31.578h-6.5l-14.164,31.578h6.45Zm8.255-18.993,5.865,13.444H136.12Z"/><path class="a" d="M176.037,228.231a16.649,16.649,0,0,0,12-4.691l-4.061-4.1a11.631,11.631,0,0,1-7.94,3.2c-7.8,0-10.827-5.458-10.872-10.691-.044-5.278,3.248-10.962,10.872-10.962a10.848,10.848,0,0,1,7.624,2.977l3.97-3.834a16.293,16.293,0,0,0-11.594-4.827c-11.413,0-16.781,8.39-16.736,16.646C159.347,220.157,164.308,228.231,176.037,228.231Z"/><path class="a" d="M214.917,221.644H197.188v-7.127h17.1v-5.548h-17.1v-7.263h17.729v-5.775H191.278v31.578h23.639Z"/><path class="a" d="M236.745,218.352l10.285-13.714v22.917h5.955V195.977h-6.811l-9.881,13.578-9.879-13.578h-6.857v31.578h5.955V204.593l10.059,13.759Z"/><path class="a" d="M273.414,228.231c11.1,0,16.1-8.165,16.2-16.33.089-8.256-5.324-16.6-16.2-16.6-10.918,0-16.24,8.345-16.24,16.646S262.316,228.231,273.414,228.231Zm0-27.518c7.442,0,10.421,5.955,10.33,11.278-.09,5.188-2.888,10.781-10.33,10.781s-10.241-5.548-10.376-10.735C262.9,206.713,265.97,200.713,273.414,200.713Z"/><path class="a" d="M306.923,223c-3.835,0-7.488-1.533-8.887-5.007l-4.962,2.57c2.346,5.775,7.308,7.761,13.76,7.761,7.037,0,13.262-3.023,13.262-10.061,0-7.533-6.136-9.247-12.721-10.059-3.789-.451-7.037-1.218-7.037-3.97,0-2.346,2.119-4.2,6.54-4.2,3.428,0,6.406,1.715,7.489,3.519l4.737-2.436c-2.391-4.872-7.489-6.27-12.407-6.27-5.818.045-12.225,2.706-12.225,9.2,0,7.083,5.955,8.8,12.406,9.564,4.2.451,7.308,1.669,7.308,4.646C314.186,221.69,310.667,223,306.923,223Z"/><path class="a" d="M94.849,240.518h7.273v19h4.669v-19h7.273v-4.277H94.849Z"/><path class="a" d="M132.844,249.583c0,3.908-1.979,6.149-5.429,6.149-3.6,0-5.755-2.3-5.755-6.149V236.274h-4.638v13.309c0,6.333,4.067,10.426,10.36,10.426,6.229,0,10.1-3.995,10.1-10.426V236.274h-4.637Z"/><path class="a" d="M157.239,245.152c-2.976-.354-4.958-.95-4.958-2.711s1.754-2.872,4.577-2.872a6.353,6.353,0,0,1,5.288,2.471l.084.139,3.735-1.921-.075-.153c-1.492-3.042-4.661-4.649-9.165-4.649-4.5.034-9.049,2.167-9.049,6.854,0,5.3,4.4,6.551,9.163,7.118,3.468.372,5.153,1.42,5.153,3.2,0,3.031-3.9,3.266-5.1,3.266-3.051,0-5.4-1.318-6.292-3.527l-.072-.177-3.913,2.027.06.146c1.572,3.865,4.892,5.743,10.152,5.743,4.74,0,9.8-1.964,9.8-7.478C166.629,247.075,162.116,245.753,157.239,245.152Z"/><path class="a" d="M180.57,235.783c-8.221,0-11.967,6.356-11.967,12.261,0,5.971,3.7,12,11.967,12,8.151,0,11.867-6.042,11.932-12.029a12.5,12.5,0,0,0-3.426-8.919A11.636,11.636,0,0,0,180.57,235.783Zm0,19.949c-5.282,0-7.266-3.94-7.361-7.628a8.311,8.311,0,0,1,2.164-6.022,7.68,7.68,0,0,1,10.34-.042,8.388,8.388,0,0,1,2.185,6.034C187.834,251.776,185.876,255.732,180.57,255.732Z"/><path class="a" d="M212.642,253.359A8.234,8.234,0,0,1,207,255.633c-5.646,0-7.691-3.921-7.722-7.591a7.976,7.976,0,0,1,2.167-5.684,8.189,8.189,0,0,1,10.969.011l.121.118,3.131-3.025-.126-.125a11.964,11.964,0,0,0-8.54-3.554,12.179,12.179,0,0,0-8.884,3.382,12.5,12.5,0,0,0-3.442,8.879c.03,5.535,3.276,12,12.326,12a12.282,12.282,0,0,0,8.835-3.456l.123-.121-3.193-3.228Z"/><rect class="a" width="4.637" height="23.276" transform="translate(219.41 236.241)"/><path class="a" d="M229.081,259.518h17.51v-4.6H233.717v-4.83h12.415v-4.376H233.717v-4.927h12.874v-4.539h-17.51Z"/><path class="a" d="M259.854,236.241h-9.182v23.277h9.182a11.5,11.5,0,0,0,8.439-3.2,12.019,12.019,0,0,0,3.2-8.635C271.4,242.4,268.3,236.241,259.854,236.241Zm-4.544,4.441h4.544c5.02,0,6.908,3.6,7,6.973a7.41,7.41,0,0,1-1.908,5.445,6.811,6.811,0,0,1-5.093,1.911H255.31Z"/><path class="a" d="M286.921,236.241h-4.943l-10.44,23.277H276.6l1.965-4.325h11.766l1.933,4.325h5.1l-10.395-23.175Zm1.523,14.577h-7.989l3.994-9.156Z"/><path class="a" d="M308.456,236.241h-9.182v23.277h9.182a11.5,11.5,0,0,0,8.439-3.2,12.023,12.023,0,0,0,3.2-8.635C320,242.4,316.9,236.241,308.456,236.241Zm-4.544,4.441h4.544c5.02,0,6.908,3.6,7,6.973a7.41,7.41,0,0,1-1.908,5.445,6.811,6.811,0,0,1-5.093,1.911h-4.544Z"/></g></svg>