<svg xmlns="http://www.w3.org/2000/svg" width="108.798" height="109.325" viewBox="0 0 108.798 109.325"><defs><style>.a{fill:#8666ee;}</style></defs><path class="a" d="M45.107,29.205H71.015a2.316,2.316,0,0,0,2.3-2.716l-.627-5.432a10.774,10.774,0,0,0-5.85-8.357,13.872,13.872,0,0,1-8.775,2.925A14.3,14.3,0,0,1,49.286,12.7a11.272,11.272,0,0,0-5.85,8.357L42.6,26.489A2.727,2.727,0,0,0,45.107,29.205Z" transform="translate(-3.452 6.151)"/><circle class="a" cx="10.029" cy="10.029" r="10.029" transform="translate(44.589)"/><path class="a" d="M28.816,67.605H54.723a2.316,2.316,0,0,0,2.3-2.716l-.836-5.432a10.774,10.774,0,0,0-5.85-8.357,13.872,13.872,0,0,1-8.775,2.925A14.3,14.3,0,0,1,32.786,51.1a11.273,11.273,0,0,0-5.85,8.357L26.1,64.889A2.919,2.919,0,0,0,28.816,67.605Z" transform="translate(-26.1 41.719)"/><circle class="a" cx="10.029" cy="10.029" r="10.029" transform="translate(5.641 71.717)"/><path class="a" d="M74.461,54.443a14.305,14.305,0,0,1-8.775-2.925,11.272,11.272,0,0,0-5.85,8.357L59,65.307a2.512,2.512,0,0,0,2.507,2.3H87.415a2.316,2.316,0,0,0,2.3-2.716l-.836-5.432a10.774,10.774,0,0,0-5.85-8.357A12.172,12.172,0,0,1,74.461,54.443Z" transform="translate(19.059 41.719)"/><circle class="a" cx="10.029" cy="10.029" r="10.029" transform="translate(83.491 71.717)"/><path class="a" d="M110.593,52.986a1.935,1.935,0,1,0,3.8,0V39.614a2.147,2.147,0,0,0-1.9-2.3H75.7V25.2a1.935,1.935,0,1,0-3.8,0V37.316H35.1a2.147,2.147,0,0,0-1.9,2.3V52.986a2.147,2.147,0,0,0,1.9,2.3,2.147,2.147,0,0,0,1.9-2.3V41.913h73.593Z" transform="translate(-18.366 13.89)"/></svg>