<svg xmlns="http://www.w3.org/2000/svg" width="332" height="332" viewBox="0 0 332 332"><defs><style>.a{fill:#fff;}.b,.d{fill:none;}.b{stroke:#fff;stroke-width:15px;}.c{stroke:none;}</style></defs><g transform="translate(63.938 48.294)"><g transform="translate(0)"><path class="a" d="M47.289,43.571H95.745a4.333,4.333,0,0,0,4.3-5.08l-1.172-10.16A20.151,20.151,0,0,0,87.929,12.7a25.946,25.946,0,0,1-16.412,5.471A26.755,26.755,0,0,1,55.1,12.7,21.083,21.083,0,0,0,44.163,28.331L42.6,38.491C42.6,40.835,44.554,43.571,47.289,43.571Z" transform="translate(30.62 22.558)"/><circle class="a" cx="18.757" cy="18.757" r="18.757" transform="translate(83.396)"/><path class="a" d="M31.18,81.971H79.636a4.333,4.333,0,0,0,4.3-5.08l-1.563-10.16A20.151,20.151,0,0,0,71.429,51.1a25.946,25.946,0,0,1-16.412,5.471A26.755,26.755,0,0,1,38.6,51.1,21.083,21.083,0,0,0,27.663,66.731L26.1,76.891C26.491,79.626,28.445,81.971,31.18,81.971Z" transform="translate(-26.1 122.504)"/><circle class="a" cx="18.757" cy="18.757" r="18.757" transform="translate(10.551 134.136)"/><path class="a" d="M87.917,57.352A26.755,26.755,0,0,1,71.5,51.882,21.083,21.083,0,0,0,60.563,67.512L59,77.672a4.7,4.7,0,0,0,4.689,4.3h48.455a4.333,4.333,0,0,0,4.3-5.08l-1.563-10.16A20.151,20.151,0,0,0,103.939,51.1,22.765,22.765,0,0,1,87.917,57.352Z" transform="translate(86.996 122.504)"/><circle class="a" cx="18.757" cy="18.757" r="18.757" transform="translate(156.156 134.136)"/><path class="a" d="M177.95,79.171c0,2.345,1.616,4.3,3.554,4.3s3.554-1.954,3.554-4.3V54.162c0-2.345-1.616-4.3-3.554-4.3H112.683V27.2c0-2.345-1.616-4.3-3.554-4.3s-3.554,1.954-3.554,4.3V49.863H36.754c-1.938,0-3.554,1.954-3.554,4.3V79.171c0,2.345,1.616,4.3,3.554,4.3s3.554-1.954,3.554-4.3V58.46H177.95Z" transform="translate(-5.455 45.91)"/></g></g><g class="b"><circle class="c" cx="166" cy="166" r="166"/><circle class="d" cx="166" cy="166" r="158.5"/></g></svg>