<svg xmlns="http://www.w3.org/2000/svg" width="126.879" height="98.36" viewBox="0 0 126.879 98.36"><defs><style>.a{fill:#8666ee;}</style></defs><path class="a" d="M115.367,70.8c-2.068-1.015-5-3.258-10.933-7.84-5.572-4.307-13.2-10.2-16.866-11.931C80.836,47.856,70.686,42.34,67.155,40.4c-5.429.1-11.106.222-14.245.308-.115.225-.229.449-.332.652C50.3,45.874,46.858,52.689,41.172,55a18.193,18.193,0,0,1-6.66,1.224c-3.729,0-6.536-1.13-8.116-3.266a6.532,6.532,0,0,1-1.171-5.1c.5-4.991,1.845-14.882,4.908-21.419-2.725-1.27-7.044-3.482-10.424-5.239a4.489,4.489,0,0,0-4.739-.012,5.53,5.53,0,0,0-2.041,2.6L3.206,51.952A13.994,13.994,0,0,0,2.533,56.3c.169,1.165.429,2.371,2.639,4.008a45.234,45.234,0,0,1,8.114,7.337c1.566,1.984,1.949,4.55,2.7,7.365a10.572,10.572,0,0,1,8.022-4.091,8.831,8.831,0,0,1,2,.226,10.528,10.528,0,0,1,7.178,6.41,10.434,10.434,0,0,1,3.567-.674,9.382,9.382,0,0,1,4.822,1.332,9.264,9.264,0,0,1,4.085,5.254,9.958,9.958,0,0,1,2.062-.239,10.5,10.5,0,0,1,5.462,1.578c3.206,1.975,4.647,5.568,4.294,10.06a8.894,8.894,0,0,1,4.245,1.239c4.184,2.59,5.2,9.22,4.038,14.148l-.067.289-.091.258a7.6,7.6,0,0,0,1.895,1.383c8.481,3.654,13.145-3.911,12.008-7.625,2.968,2.151,9,1.085,11.87-1.938S92.849,94.3,92.849,94.3s7.9,4.584,13.629-1.13c3.72-3.707.766-8.313.766-8.313s7.491,3.053,11.006-2.007C121.58,78.064,119.476,74.336,115.367,70.8Z" transform="translate(-2.499 -14.799)"/><path class="a" d="M42.556,88.613a5.9,5.9,0,0,1-2.784-.937,5.32,5.32,0,0,1-1.584-7.69l.5-.936c1.779-2.738,5.986-3.859,7.971-2.655,1.65,1.006,2.441,4.956,1.65,8.259l-.2.566C46.3,88.508,44.638,88.766,42.556,88.613Z" transform="translate(12.036 9.542)"/><path class="a" d="M22.251,50.457s1.874-18.877,6.508-22.985,8.262-5.3,14.56-6.37,19.935-5.669,24.641-4.3,12.513,3.5,17.174,4.412,10.195,4.363,12.96,4.552c1.566.105,5.414-1.736,8.519-3.21a3.894,3.894,0,0,1,3.975.413,5.314,5.314,0,0,1,1.989,2.863l9.458,29.429a8.336,8.336,0,0,1,.32,2.906,4.256,4.256,0,0,1-2.295,3.291c-3.335,2.191-8.074,5.408-8.573,6.341-.777,1.442-20.94-16.155-29.082-19.936S60.743,36.709,60.743,36.709s-17.341.314-18.7.446-5.076,12.2-10.99,14.558C27.567,53.108,21.564,52.81,22.251,50.457Z" transform="translate(4.488 -16.551)"/><path class="a" d="M18.59,74.258a5.682,5.682,0,0,1-.887-.131,5.919,5.919,0,0,1-4.46-7.077l.344-1.506c.72-3.187,3.708-6.88,6.893-6.15s4.8,5.171,4.075,8.358l-.327,2.116A5.185,5.185,0,0,1,18.59,74.258Z" transform="translate(2.159 2.24)"/><path class="a" d="M25.429,80.359a4.51,4.51,0,0,1-2.313-.5,6.367,6.367,0,0,1-2.339-8.411l2.758-4.085c1.668-2.814,5.325-5,8.139-3.34s2.3,5.58,1.045,8.5l-2.217,4.7C29.322,79.21,27.6,80.516,25.429,80.359Z" transform="translate(4.833 4.061)"/><path class="a" d="M34.831,85.07A5.914,5.914,0,0,1,30.208,76.1l3.661-5.23c1.7-2.79,4.8-3.916,7.588-2.226s1.856,6.513.669,9.618l-1.808,3.97A5.908,5.908,0,0,1,34.831,85.07Z" transform="translate(8.739 5.999)"/></svg>