<svg xmlns="http://www.w3.org/2000/svg" width="296.317" height="85.85" viewBox="0 0 296.317 85.85"><defs><style>.a{fill:#fff;}</style></defs><g transform="translate(-517.895 -193.071)"><g transform="translate(517.895 193.071)"><path class="a" d="M525.728,218.945h20.415v16.8h7.774V194.2h-7.774v17.506H525.728V194.2h-7.834v41.542h7.834Z" transform="translate(-517.895 -192.715)"/><path class="a" d="M559.665,227.862h21.721l3.5,7.834h8.546L574.8,194.153h-8.546L547.617,235.7H556.1Zm10.86-24.986,7.716,17.686H562.81Z" transform="translate(-508.517 -192.73)"/><path class="a" d="M604.364,236.844a21.9,21.9,0,0,0,15.786-6.171l-5.342-5.4a15.3,15.3,0,0,1-10.444,4.212c-10.268,0-14.243-7.18-14.3-14.064C590,208.477,594.334,201,604.364,201a14.278,14.278,0,0,1,10.03,3.916l5.223-5.044a21.434,21.434,0,0,0-15.252-6.35c-15.015,0-22.077,11.039-22.017,21.9C582.406,226.222,588.934,236.844,604.364,236.844Z" transform="translate(-497.559 -192.929)"/><path class="a" d="M645.422,227.979H622.1V218.6h22.492v-7.3H622.1V201.75h23.324v-7.6h-31.1V235.7h31.1Z" transform="translate(-487.469 -192.73)"/><path class="a" d="M665.214,223.634l13.531-18.041v30.147h7.834V194.2h-8.961l-13,17.862-13-17.862H642.6v41.542h7.834V205.533l13.234,18.1Z" transform="translate(-478.546 -192.715)"/><path class="a" d="M701.584,236.844c14.6,0,21.184-10.741,21.3-21.483.118-10.861-7-21.839-21.3-21.839-14.363,0-21.364,10.978-21.364,21.9S686.985,236.844,701.584,236.844Zm0-36.2c9.79,0,13.708,7.834,13.588,14.836-.117,6.825-3.8,14.183-13.588,14.183s-13.474-7.3-13.651-14.122C687.755,208.536,691.791,200.643,701.584,200.643Z" transform="translate(-466.677 -192.929)"/><path class="a" d="M734.339,230.1c-5.045,0-9.851-2.017-11.692-6.587L716.12,226.9c3.086,7.6,9.613,10.208,18.1,10.208,9.259,0,17.446-3.977,17.446-13.236,0-9.91-8.071-12.165-16.735-13.233-4.985-.593-9.257-1.6-9.257-5.223,0-3.086,2.789-5.52,8.6-5.52,4.511,0,8.429,2.256,9.852,4.631l6.232-3.206c-3.145-6.409-9.852-8.248-16.32-8.248-7.655.059-16.082,3.56-16.082,12.107,0,9.317,7.834,11.571,16.319,12.58,5.52.593,9.615,2.2,9.615,6.112C743.893,228.381,739.264,230.1,734.339,230.1Z" transform="translate(-455.35 -193.071)"/><g transform="translate(0 53.42)"><path class="a" d="M517.895,240.09h9.567v24.994H533.6V240.09h9.568v-5.626H517.895Z" transform="translate(-517.895 -233.43)"/><path class="a" d="M560.883,252c0,5.141-2.6,8.089-7.142,8.089-4.741,0-7.572-3.024-7.572-8.089V234.5h-6.1V252c0,8.333,5.352,13.716,13.63,13.716,8.194,0,13.284-5.256,13.284-13.716V234.5h-6.1Z" transform="translate(-510.899 -233.42)"/><path class="a" d="M583.638,246.433c-3.915-.466-6.524-1.25-6.524-3.565,0-2.331,2.307-3.78,6.021-3.78,3.289,0,5.99,1.635,6.958,3.251l.11.183L595.116,240l-.1-.2c-1.963-4-6.132-6.116-12.057-6.116-5.925.045-11.9,2.851-11.9,9.017,0,6.97,5.792,8.619,12.053,9.364,4.562.489,6.78,1.868,6.78,4.211,0,3.987-5.137,4.3-6.712,4.3-4.015,0-7.109-1.735-8.277-4.641l-.095-.232-5.148,2.665.078.193c2.068,5.083,6.437,7.555,13.356,7.555,6.234,0,12.9-2.585,12.9-9.839C595.989,248.964,590.054,247.224,583.638,246.433Z" transform="translate(-501.562 -233.678)"/><path class="a" d="M607.391,234.005c-10.815,0-15.742,8.361-15.742,16.13,0,7.856,4.869,15.782,15.742,15.782,10.724,0,15.613-7.948,15.7-15.824a16.441,16.441,0,0,0-4.508-11.733A15.3,15.3,0,0,0,607.391,234.005Zm0,26.243c-6.949,0-9.559-5.183-9.684-10.035a10.934,10.934,0,0,1,2.848-7.921,10.1,10.1,0,0,1,13.6-.057,11.036,11.036,0,0,1,2.873,7.938C616.948,255.044,614.371,260.248,607.391,260.248Z" transform="translate(-494.624 -233.575)"/><path class="a" d="M641.356,257.127a10.829,10.829,0,0,1-7.421,2.991c-7.427,0-10.118-5.158-10.158-9.985a10.494,10.494,0,0,1,2.851-7.479,10.773,10.773,0,0,1,14.43.014l.158.155,4.12-3.979-.166-.164a15.74,15.74,0,0,0-11.235-4.675,16.02,16.02,0,0,0-11.687,4.449,16.45,16.45,0,0,0-4.528,11.682c.038,7.28,4.31,15.781,16.215,15.781a16.16,16.16,0,0,0,11.623-4.546l.162-.159-4.2-4.247Z" transform="translate(-486.398 -233.575)"/><rect class="a" width="6.1" height="30.621" transform="translate(163.863 1.033)"/><path class="a" d="M652.126,265.084h23.035v-6.057H658.226v-6.354h16.332v-5.756H658.226v-6.482h16.936v-5.971H652.126Z" transform="translate(-475.541 -233.43)"/><path class="a" d="M685.8,234.463H673.717v30.621H685.8a15.126,15.126,0,0,0,11.1-4.214,15.816,15.816,0,0,0,4.207-11.36C700.988,242.569,696.906,234.463,685.8,234.463Zm-5.979,5.842H685.8c6.6,0,9.088,4.739,9.21,9.173a9.746,9.746,0,0,1-2.511,7.164,8.956,8.956,0,0,1-6.7,2.513h-5.979Z" transform="translate(-468.729 -233.43)"/><path class="a" d="M714.82,234.463h-6.5l-13.735,30.621h6.661l2.585-5.688h15.478l2.543,5.688h6.707L714.88,234.6Zm2,19.176H706.315l5.254-12.044Z" transform="translate(-462.145 -233.43)"/><path class="a" d="M734.4,234.463H722.319v30.621H734.4a15.124,15.124,0,0,0,11.1-4.214,15.811,15.811,0,0,0,4.208-11.36C749.59,242.569,745.508,234.463,734.4,234.463Zm-5.979,5.842H734.4c6.6,0,9.086,4.739,9.21,9.173a9.752,9.752,0,0,1-2.511,7.164,8.956,8.956,0,0,1-6.7,2.513H728.42Z" transform="translate(-453.394 -233.43)"/></g></g></g></svg>